# xmcd
#
# Track frame offsets:
#	150
#	20320
#	48575
#	70146
#	100557
#	124759
#	142519
#	165970
#	189768
#	208766
#
# Disc length: 3152 seconds
#
# Revision: 2
# Processed by: cddbd v1.5.2PL0 Copyright (c) Steve Scherf et al.
# Submitted via: EZCDAudioConverter 8.0.2.1
#
DISCID=740c4e0a
DTITLE=Hương Lan - 10 Tình Khúc Tiền Chiến Bất Tử
DYEAR=1998
DGENRE=country
TTITLE0=Suối mơ
TTITLE1=Biệt ly
TTITLE2=Lá đổ muôn chiều
TTITLE3=Đêm đông
TTITLE4=Dang dở
TTITLE5=Tiếng xưa
TTITLE6=Giọt mưa thu
TTITLE7=Bến xuân
TTITLE8=Buồn tàn thu
TTITLE9=Con thuyền không bến
EXTD=
EXTT0=
EXTT1=
EXTT2=
EXTT3=
EXTT4=
EXTT5=
EXTT6=
EXTT7=
EXTT8=
EXTT9=
PLAYORDER=
